<svg class="logos_image" width="240" height="50" viewBox="0 0 240 50" xmlns="http://www.w3.org/2000/svg">
                                    <path d="M0,42.22h1.66c2.01,0,2.76-1.53,2.76-4.24v-25.9h9.95v26.93c0,4.49-0.25,7.2-2.31,9.1C10.2,49.84,7.04,49.95,4.67,50H0 V42.22z M31.49,40.21c-10.04,0-14.58-6.95-14.58-14.71c0-7.76,4.53-14.66,14.58-14.66c10.04,0,14.58,6.9,14.58,14.66 C46.07,33.25,41.54,40.21,31.49,40.21z M31.49,18.59c-3.86,0-4.38,3.93-4.38,6.9c0,2.96,0.52,6.95,4.38,6.95 c3.86,0,4.38-3.99,4.38-6.95C35.87,22.53,35.36,18.59,31.49,18.59z M94.04,28.5c-0.21,2.2-1.76,4.09-3.98,4.09 c-3.93,0-4.49-3.49-4.49-6.88c0-3.39,0.57-6.94,4.49-6.94c1.08,0,1.96,0.32,2.58,0.91c0.67,0.59,1.03,1.37,1.14,2.5h9.71 c-0.62-7.69-6.61-11.16-13.64-11.16c-5.26,0-10,2-12.55,6.19c1.22,2.54,1.83,6.05,1.83,8.73c0,2.58-0.55,5.34-1.67,7.74 c2.54,4.17,7.12,6.65,12.38,6.65c7.23,0,12.97-4.25,13.95-11.83H94.04z M48.37,2.15h9.97V15.2h0.1c1.51-2.28,4.18-4.02,7.15-4.02 c8.76,0,11.13,8.06,11.13,14.38c0,6.73-3.58,14.64-10.98,14.64c-4.89,0-6.4-2.31-7.66-4.02h-0.1v2.95h-9.62V2.15z M62.37,19.04 c-3.58,0-4.38,3.47-4.38,6.63c0,3.21,0.81,6.68,4.38,6.68c3.58,0,4.38-3.47,4.38-6.68C66.76,22.51,65.95,19.04,62.37,19.04z M115.92,28.02c0.26,3.16,1.6,5.4,4.79,5.4c1.65,0,3.42-0.59,4.27-2.38h9.51c-1.55,6.55-7.66,9.17-13.73,9.17 c-8.53,0-14.96-5.24-14.96-14.5c0-8.08,5.65-14.66,14.08-14.66c10.59,0,15.16,6.15,15.16,16.96H115.92z M125.29,22.51 c0-2.57-1.85-4.66-4.47-4.66c-3.03,0-4.38,1.66-4.84,4.66H125.29z M138.06,11.94h9.18v3.87h0.19c1.89-2.73,5.09-4.55,9.13-4.55 c4.75,0,9.09,2.99,9.09,9.23v18.66h-10.11V24.89c0-3.15-0.36-5.35-3.32-5.35c-1.74,0-4.03,0.89-4.03,5.24v14.36h-10.11V11.94z M181.89,12.07h5.04v6.46h-5.04v9.35c0,2.48,0.4,3.57,2.84,3.57c0.73,0,1.31-0.04,2.2-0.04v7.94c-1.95,0-4.15,0-6.2,0 c-4.1,0-8.65-0.67-8.65-8.01V18.18h-3.5v-6.12h3.5v-8.5h9.82V12.07z M231.26,16.78c0,0,1.43-6.15,8.72-5.45L240,21.97 c-1.12,0-0.82,0-2.78,0c-3.27,0-5.57,1.5-5.57,5.17v11.78l-9.68-0.01V12.1l9.29,0.01V16.78z M199.06,27.98 c0.26,3.17,1.6,5.42,4.79,5.42c1.65,0,3.42-0.59,4.27-2.39h9.51c-1.55,6.58-7.66,9.2-13.73,9.2c-8.53,0-14.96-5.26-14.96-14.55 c0-8.11,5.65-14.71,14.08-14.71c10.59,0,15.16,6.17,15.16,17.02H199.06z M208.43,22.45c0-2.58-1.85-4.67-4.47-4.67 c-3.03,0-4.38,1.67-4.84,4.67H208.43z M9.28,0C6.37,0,4.01,2.34,4.01,5.22c0,2.89,2.36,5.22,5.27,5.22c2.91,0,5.27-2.34,5.27-5.22 C14.55,2.34,12.19,0,9.28,0z"></path>
                                </svg>