<svg class="logos_image" width="280" height="35" viewBox="0 0 280 35" xmlns="http://www.w3.org/2000/svg">
                                    <path d="M45.41,0.27h6.64v33.7h-6.64V0.27z M70.95,21.7h-0.01c0,0.98-0.06,1.96-0.19,2.94c-0.1,0.73-0.27,1.31-0.52,1.76 c-0.47,0.92-1.11,1.59-1.9,2.04s-1.71,0.66-2.75,0.66c-1.02,0-1.83-0.19-2.47-0.57c-0.66-0.41-1.12-0.97-1.37-1.65 c-0.17-0.45-0.25-0.88-0.28-1.32c-0.04-0.38-0.05-1.2-0.05-2.46V9.6h-6.64v15.48c0,1.67,0.13,3.03,0.38,4.07 c0.25,1.04,0.67,1.92,1.27,2.65c0.76,0.94,1.71,1.67,2.84,2.18c1.17,0.51,2.48,0.76,3.93,0.76c1.79,0,3.33-0.33,4.59-0.99 c1.36-0.73,2.51-1.78,3.46-3.17v3.42h6.35V9.61h-6.64V21.7z M104.54,15.62c0.7,1.77,1.04,3.75,1.04,5.96c0,3.87-1.02,7.04-3.03,9.49 c-1.95,2.39-4.54,3.59-7.79,3.59c-1.13,0-2.21-0.17-3.26-0.48c-0.98-0.29-1.86-0.74-2.65-1.35c-0.38-0.32-0.69-0.59-0.9-0.81 c-0.17-0.17-0.45-0.55-0.85-1.16v3.13h-6.35V0.36h6.64v12.22c0.5-0.62,0.93-1.09,1.27-1.41c0.34-0.32,0.85-0.65,1.51-0.99 c0.62-0.33,1.39-0.62,2.27-0.84C93.39,9.11,94.27,9,95.1,9c1.15,0,2.28,0.2,3.41,0.61c1.11,0.41,2.11,0.99,3.03,1.74 C102.82,12.38,103.82,13.81,104.54,15.62z M98.8,21.56c0-2.2-0.53-3.98-1.6-5.37c-1.03-1.35-2.43-2.02-4.2-2.02 c-1.79,0-3.23,0.67-4.3,2.02c-1.04,1.32-1.57,3.13-1.57,5.42c0,2.38,0.52,4.25,1.57,5.6c1.04,1.35,2.49,2.02,4.35,2.02 c0.95,0,1.81-0.2,2.56-0.61c0.73-0.41,1.36-1.03,1.9-1.88c0.45-0.69,0.78-1.48,0.99-2.35C98.73,23.51,98.83,22.57,98.8,21.56z M74.34,0.42h-6.27v5.47h6.27V0.42z M64.44,0.42h-6.27v5.47h6.27V0.42z M18.1,0.27h6.64v33.7h-6.35v-3.21 c-0.83,1.32-1.86,2.3-3.12,2.95c-1.16,0.61-2.57,0.92-4.24,0.92c-1.65,0-3.18-0.31-4.57-0.9C5.18,33.17,4,32.25,2.93,30.99 c-1.01-1.21-1.74-2.56-2.21-4.07S0,23.66,0,21.67c0-2.46,0.38-4.58,1.13-6.38s1.91-3.27,3.45-4.44c0.83-0.6,1.77-1.08,2.84-1.43 c1.13-0.34,2.21-0.52,3.26-0.52c1.62,0,3.05,0.32,4.35,0.97c1.26,0.62,2.28,1.54,3.07,2.76h0V0.27z M18.31,21.78 c0-2.25-0.53-4.07-1.6-5.45c-1.03-1.35-2.44-2.02-4.24-2.02c-1.78,0-3.21,0.66-4.24,1.97c-1.02,1.29-1.51,3.11-1.51,5.45 c0,2.38,0.51,4.23,1.51,5.54c1.01,1.31,2.43,1.97,4.29,1.97c1.78,0,3.19-0.66,4.24-1.97C17.81,25.95,18.31,24.12,18.31,21.78z M38.47,9.37c-0.85,0.22-1.59,0.53-2.21,0.95c-0.66,0.48-1.25,1.01-1.74,1.58c-0.51,0.57-0.98,1.3-1.41,2.19V9.58h-6.35v24.39h6.64 V23.75c0-1.51,0.06-2.66,0.19-3.45c0.13-0.79,0.39-1.53,0.8-2.23c0.6-0.98,1.36-1.72,2.27-2.23c1.01-0.53,2.1-0.8,3.27-0.8 c0.88,0.04,1.73,0.13,2.56,0.29V9.13c-0.66-0.1-1.16-0.15-1.51-0.15C40.26,8.99,39.42,9.11,38.47,9.37z M152.69,23.55h-17.5 c0.06,2.07,0.59,3.67,1.57,4.76c0.95,1.07,2.34,1.6,4.17,1.6c1.22,0,2.24-0.27,3.03-0.8c0.79-0.53,1.44-1.43,1.93-2.67h6.43 c-0.18,0.73-0.43,1.41-0.75,2.04c-0.29,0.6-0.69,1.21-1.18,1.85c-1.08,1.45-2.43,2.56-4.07,3.31c-1.54,0.73-3.36,1.09-5.43,1.09 c-1.87,0-3.55-0.28-5.07-0.85c-1.48-0.53-2.79-1.4-3.92-2.6c-1.09-1.11-1.96-2.47-2.6-4.11c-0.61-1.58-0.9-3.31-0.9-5.19 c0-3.78,1.15-6.9,3.45-9.35c2.3-2.46,5.23-3.69,8.79-3.69c2.35,0,4.51,0.6,6.43,1.79s3.36,2.84,4.3,4.95 c0.41,0.94,0.73,2.07,0.94,3.4C152.56,20.57,152.69,22.07,152.69,23.55z M145.91,19.24c-0.03-0.56-0.13-1.11-0.28-1.64 c-0.1-0.43-0.29-0.89-0.57-1.36c-0.41-0.75-1.02-1.36-1.85-1.83c-0.81-0.46-1.67-0.7-2.56-0.7c-0.92,0-1.76,0.2-2.51,0.61 c-0.73,0.38-1.36,0.95-1.9,1.74c-0.34,0.53-0.59,1.01-0.71,1.41c-0.1,0.41-0.22,1.01-0.34,1.77H145.91z M130.19,9.58h-7.98 l-6.92,7.01c-0.13,0.13-0.37,0.39-0.71,0.8c-0.22,0.25-0.56,0.67-0.99,1.27l0.04-1.79V0.27h-6.5v33.7h6.5v-8.32l2.77-2.55 l6.78,10.87h8.06l-10.3-15.37L130.19,9.58z M235.81,15.62c0.7,1.77,1.04,3.75,1.04,5.96c0,3.87-1.02,7.04-3.03,9.49 c-1.95,2.39-4.54,3.59-7.79,3.59c-1.13,0-2.21-0.17-3.26-0.48c-0.98-0.29-1.86-0.74-2.65-1.35c-0.38-0.32-0.69-0.59-0.9-0.81 c-0.17-0.17-0.45-0.55-0.85-1.16v3.13h-6.35V0.36h6.64v12.22c0.5-0.62,0.93-1.09,1.27-1.41c0.34-0.32,0.85-0.65,1.51-0.99 c0.64-0.33,1.39-0.62,2.28-0.84c0.94-0.22,1.83-0.33,2.65-0.33c1.15,0,2.28,0.2,3.41,0.61c1.11,0.41,2.11,0.99,3.03,1.74 C234.11,12.38,235.1,13.81,235.81,15.62z M230.11,21.56c0-2.2-0.53-3.98-1.6-5.37c-1.03-1.35-2.44-2.02-4.2-2.02 c-1.79,0-3.23,0.67-4.3,2.02c-1.03,1.32-1.55,3.13-1.55,5.42c0,2.38,0.51,4.25,1.55,5.6c1.04,1.35,2.49,2.02,4.35,2.02 c0.94,0,1.79-0.2,2.55-0.61c0.73-0.41,1.36-1.03,1.9-1.88c0.45-0.69,0.78-1.48,0.99-2.35C230.01,23.51,230.12,22.57,230.11,21.56z M262.33,23.55h-17.51c0.06,2.07,0.59,3.67,1.57,4.76c0.95,1.07,2.34,1.6,4.17,1.6c1.23,0,2.24-0.27,3.03-0.8 c0.79-0.52,1.44-1.43,1.95-2.67h6.43c-0.18,0.73-0.43,1.41-0.75,2.04c-0.28,0.6-0.67,1.21-1.18,1.85c-1.08,1.45-2.43,2.56-4.07,3.31 c-1.54,0.73-3.36,1.09-5.43,1.09c-1.87,0-3.55-0.28-5.07-0.85c-1.48-0.53-2.79-1.4-3.92-2.6c-1.09-1.11-1.96-2.47-2.6-4.11 c-0.6-1.58-0.9-3.31-0.9-5.19c0-3.78,1.15-6.9,3.45-9.35c2.3-2.46,5.23-3.69,8.79-3.69c2.37,0,4.51,0.6,6.43,1.79 c1.92,1.2,3.36,2.84,4.3,4.95c0.41,0.94,0.73,2.07,0.94,3.4C262.21,20.58,262.33,22.07,262.33,23.55z M255.54,19.24 c-0.03-0.56-0.13-1.11-0.28-1.64c-0.1-0.43-0.29-0.89-0.57-1.36c-0.41-0.75-1.02-1.36-1.85-1.83c-0.83-0.46-1.68-0.7-2.56-0.7 c-0.92,0-1.74,0.2-2.51,0.61c-0.73,0.38-1.36,0.95-1.9,1.74c-0.34,0.53-0.59,1.01-0.71,1.41c-0.09,0.4-0.2,0.99-0.33,1.77h0v0.01 c0,0,0-0.01,0-0.01H255.54z M178.22,9.58h-7.98l-6.92,7.01c-0.13,0.13-0.37,0.39-0.71,0.8c-0.22,0.25-0.55,0.67-0.99,1.27l0.04-1.79 v-2.04V0.27h-6.5v33.7h6.5v-8.32l2.77-2.55l6.78,10.87h8.06l-10.3-15.37L178.22,9.58z M278.49,8.99c-0.73,0-1.55,0.13-2.49,0.38 c-0.85,0.22-1.59,0.53-2.21,0.95c-0.66,0.48-1.25,1.01-1.74,1.58c-0.51,0.57-0.98,1.3-1.41,2.19V9.58h-6.35v24.39h6.64V23.75 c0-1.51,0.06-2.66,0.19-3.45c0.13-0.79,0.39-1.53,0.8-2.23c0.6-0.98,1.35-1.72,2.27-2.23c1.01-0.53,2.1-0.8,3.27-0.8 c0.88,0.04,1.73,0.13,2.56,0.29V9.13C279.34,9.04,278.84,8.99,278.49,8.99z M202.73,33.97h6.64V0.27h-6.64V33.97z M200.75,23.55 h-17.51c0.06,2.07,0.59,3.67,1.57,4.76c0.95,1.07,2.34,1.6,4.17,1.6c1.23,0,2.24-0.27,3.03-0.8c0.79-0.52,1.44-1.43,1.95-2.67h6.43 c-0.18,0.73-0.43,1.41-0.75,2.04c-0.28,0.6-0.69,1.21-1.18,1.85c-1.08,1.45-2.43,2.56-4.07,3.31c-1.54,0.73-3.36,1.09-5.43,1.09 c-1.87,0-3.55-0.28-5.07-0.85c-1.48-0.53-2.79-1.4-3.92-2.6c-1.11-1.11-1.97-2.47-2.61-4.11c-0.6-1.58-0.9-3.31-0.9-5.19 c0-3.78,1.15-6.9,3.45-9.35c2.3-2.46,5.23-3.69,8.79-3.69c2.35,0,4.51,0.6,6.43,1.79s3.36,2.84,4.3,4.95 c0.41,0.94,0.73,2.07,0.94,3.4C200.61,20.58,200.73,22.07,200.75,23.55z M193.93,19.24c-0.03-0.56-0.13-1.11-0.28-1.64 c-0.1-0.43-0.29-0.89-0.57-1.36c-0.41-0.75-1.02-1.36-1.85-1.83c-0.81-0.46-1.68-0.7-2.56-0.7c-0.92,0-1.76,0.2-2.51,0.61 c-0.73,0.38-1.36,0.95-1.9,1.74c-0.34,0.53-0.59,1.01-0.71,1.41c-0.09,0.4-0.2,0.99-0.33,1.77h0v0.01c0,0,0-0.01,0-0.01H193.93z"></path>
                                </svg>