<svg class="logos_image" width="280" height="50" viewBox="0 0 280 50" xmlns="http://www.w3.org/2000/svg">
                                    <path d="M68.71,37.63h-4.43l1.65-6.64h-5.95l-1.65,6.64H53.9l3.76-15.06h4.42l-1.62,6.5h5.95l1.62-6.5h4.42L68.71,37.63z M83.85,27.35c0.12-0.51-0.1-0.67-0.51-0.67h-3.73c-0.41,0-0.7,0.16-0.82,0.67l-2,8c-0.14,0.51,0.08,0.67,0.49,0.67H81 c0.41,0,0.71-0.16,0.84-0.67L83.85,27.35 M85.57,35.15c-0.37,1.53-1.39,2.47-3.08,2.47H75c-1.69,0-2.24-0.94-1.86-2.47l1.9-7.61 c0.39-1.53,1.41-2.47,3.1-2.47h7.49c1.69,0,2.24,0.94,1.84,2.47L85.57,35.15z M101.55,25.07H93.9c-1.69,0-2.71,0.94-3.1,2.47 l-1.9,7.61c-0.37,1.53,0.18,2.47,1.86,2.47h7.65l0.39-1.61h-5.77c-0.41,0-0.63-0.16-0.49-0.67l2-8c0.12-0.51,0.41-0.67,0.82-0.67 h5.76L101.55,25.07z M116.33,25.07h-2.12l-7.45,6l1.51-6h-3.69l-3.14,12.55h3.69l1.02-4.1l2.43-2.04l1.51,6.14h4.12l-2.39-8.63 L116.33,25.07z M130.51,25.07h-10.37L117,37.63h10.38l0.39-1.61h-6.69l0.98-3.92h6.08l0.41-1.61h-6.08l0.94-3.8h6.69L130.51,25.07z M146.31,25.07h-1.69l-2.49,9.96h-0.04l-3.83-9.96h-4.37l-3.14,12.55h1.69l2.53-10.16h0.04l3.9,10.16h4.25L146.31,25.07z M163,25.07 h-3.69l-1.35,5.41H153l1.35-5.41h-3.69l-3.14,12.55h3.69l1.37-5.53h4.96l-1.37,5.53h3.69L163,25.07z M177.49,25.07h-10.37 l-3.14,12.55h10.37l0.39-1.61h-6.69l0.98-3.92h6.08l0.41-1.61h-6.08l0.94-3.8h6.69L177.49,25.07z M184.76,25.07h-3.69l-3.14,12.55 h3.69L184.76,25.07z M205.27,25.07h-4.45l-5.92,9.12l-1.31-9.12h-4.71l-3.14,12.55h1.69l2.69-10.75h0.04l1.53,10.75h2.55l6.98-10.75 h0.04l-2.69,10.75h3.57L205.27,25.07z M220.21,25.46c0.17-0.66,0.02-0.97-0.59-0.97h-5.11l-1.13,4.57h5.11 c0.64,0,0.87-0.31,1.06-1.01L220.21,25.46 M223.72,28.57c-0.35,1.46-1.32,2.28-2.94,2.5l0.97,6.57h-4.61l-0.94-6.64h-3.29 l-1.65,6.64h-4.42l3.77-15.06h11.72c1.98,0,2.61,1.15,2.21,2.8L223.72,28.57z M232.58,25.07h-3.69l-3.14,12.55h3.69L232.58,25.07z M249.11,25.07h-1.69l-2.49,9.96h-0.04l-3.83-9.96h-4.37l-3.14,12.55h1.69l2.53-10.16h0.04l3.9,10.16h4.26L249.11,25.07z M265.11,25.07h-9.57c-1.69,0-2.71,0.94-3.1,2.47l-1.9,7.61c-0.37,1.53,0.18,2.47,1.86,2.47h5.18c0.96,0,1.45-0.33,1.75-1.1h0.04 l-0.27,1.1h3.27l1.86-7.49h-7.73l-0.39,1.61h4.16l-0.94,3.77c-0.08,0.31-0.31,0.51-0.67,0.51h-3.98c-0.41,0-0.63-0.16-0.49-0.67l2-8 c0.12-0.51,0.41-0.67,0.82-0.67h7.69L265.11,25.07z M117.61,47.4c0.08-0.31,0.02-0.45-0.25-0.45h-2.38l-0.54,2.17h2.37 c0.27,0,0.4-0.15,0.48-0.45L117.61,47.4 M118.36,44.4c0.08-0.31,0.02-0.45-0.25-0.45h-2.38l-0.52,2.1h2.38 c0.27,0,0.39-0.15,0.47-0.45L118.36,44.4 M120.07,45.43c-0.2,0.77-0.63,0.95-1.79,1.01l-0.01,0.03c1.14,0.05,1.5,0.23,1.29,1.02 l-0.31,1.23c-0.18,0.73-0.75,1.28-1.66,1.28h-5.4l1.73-6.94h5.4c0.8,0,1.24,0.44,1.02,1.3L120.07,45.43z M124.97,44.51l-1.81,2.63 h2.34L124.97,44.51z M126.06,50l-0.38-1.97h-3.16L121.17,50h-0.98l4.85-6.94h1.78l1.42,6.94H126.06z M136,44.32 c0.07-0.28-0.05-0.37-0.28-0.37l-2.43,0.01L132,49.11h2.43c0.23,0,0.39-0.09,0.47-0.37L136,44.32 M136.95,48.63 c-0.21,0.85-0.77,1.37-1.7,1.37h-5.51l1.74-6.94h5.51c0.93,0,1.24,0.52,1.02,1.37L136.95,48.63z M146.47,43.06h-5.74L139,50h5.74 l0.22-0.89h-3.7l0.54-2.17h3.36l0.23-0.89h-3.36l0.52-2.1h3.7L146.47,43.06z M155.32,43.06h-0.93l-1.38,5.51h-0.02l-2.11-5.51h-2.42 L146.72,50h0.94l1.4-5.62h0.02l2.16,5.62h2.35L155.32,43.06z M160.35,46.64h-3.42l-0.4,1.63h3.42L160.35,46.64z M173.88,43.06h-0.95 l-2.74,5.45h-0.02l-0.08-5.45h-1.61l-2.79,5.45h-0.02l-0.07-5.45h-2.11L163.7,50h2.1l2.31-4.52h0.02l0.11,4.52h2.06L173.88,43.06z M181.16,48.82C181,49.46,180.31,50,179.65,50h-4.32c-0.66,0-1.09-0.54-0.92-1.18l1.44-5.76h2.04l-1.44,5.76 c-0.05,0.22,0.06,0.29,0.25,0.29h3.12c0.2,0,0.35-0.08,0.4-0.29l1.44-5.76h0.93L181.16,48.82z M179.09,42.63h-1.37l0.32-1.26h1.37 L179.09,42.63z M181.22,42.63h-1.37l0.31-1.26h1.37L181.22,42.63z M189.1,44.39c0.08-0.3,0.01-0.45-0.27-0.45h-2.35l-0.52,2.1h2.35 c0.29,0,0.4-0.14,0.49-0.47L189.1,44.39 M190.72,45.82c-0.16,0.67-0.61,1.05-1.35,1.15l0.44,3.03h-2.13l-0.43-3.06h-1.52L184.97,50 h-2.04l1.74-6.94h5.4c0.91,0,1.2,0.53,1.02,1.29L190.72,45.82z M199.3,43.06h-6.31l-0.23,0.89h2.14L193.38,50h2.04l1.51-6.05h2.14 L199.3,43.06z M206.91,43.06h-6.31l-0.23,0.89h2.14L201,50h2.04l1.51-6.05h2.14L206.91,43.06z M214.43,43.06h-5.74L206.96,50h5.74 l0.22-0.89h-3.7l0.54-2.17h3.36l0.23-0.89h-3.37l0.52-2.1h3.7L214.43,43.06z M225.48,43.06h-2.46l-3.27,5.04l-0.73-5.04h-2.6 L214.68,50h0.93l1.49-5.94h0.02l0.85,5.94h1.41l3.86-5.94h0.02L221.78,50h1.98L225.48,43.06z M231.56,47.4 c0.08-0.31,0.02-0.45-0.25-0.45h-2.38l-0.54,2.17h2.38c0.27,0,0.4-0.15,0.48-0.45L231.56,47.4 M232.3,44.4 c0.08-0.31,0.02-0.45-0.25-0.45h-2.38l-0.52,2.1h2.38c0.27,0,0.39-0.15,0.47-0.45L232.3,44.4 M234.02,45.43 c-0.19,0.77-0.63,0.95-1.79,1.01l-0.01,0.03c1.14,0.05,1.5,0.23,1.29,1.02l-0.32,1.23c-0.19,0.73-0.75,1.28-1.66,1.28h-5.4 l1.74-6.94h5.4c0.8,0,1.24,0.44,1.02,1.3L234.02,45.43z M242.74,43.06H237L235.27,50H241l0.22-0.89h-3.7l0.54-2.17h3.36l0.23-0.89 h-3.36l0.52-2.1h3.7L242.74,43.06z M249.16,44.39c0.07-0.3,0.01-0.45-0.27-0.45h-2.35l-0.52,2.1h2.35c0.29,0,0.4-0.14,0.49-0.47 L249.16,44.39 M250.77,45.82c-0.16,0.67-0.61,1.05-1.36,1.15l0.45,3.03h-2.13l-0.43-3.06h-1.52L245.02,50h-2.04l1.74-6.94h5.4 c0.91,0,1.21,0.53,1.02,1.29L250.77,45.82z M260.51,43.06h-5.29c-0.93,0-1.5,0.52-1.71,1.37l-1.05,4.21 c-0.21,0.85,0.1,1.37,1.03,1.37h2.86c0.53,0,0.8-0.18,0.97-0.61h0.02L257.18,50h1.81l1.03-4.14h-4.27l-0.22,0.89h2.3l-0.52,2.08 c-0.04,0.17-0.17,0.28-0.37,0.28h-2.2c-0.23,0-0.35-0.09-0.27-0.37l1.11-4.42c0.07-0.28,0.23-0.37,0.46-0.37h4.25L260.51,43.06z M109.23,0C49.1,0.05,0.42,10.6,0.42,23.62c0,8.22,19.43,15.46,48.91,19.69C39.36,39.5,33.6,34.98,33.6,30.13 c0-13.65,45.77-24.71,102.22-24.71c22.26,0,42.86,1.72,59.65,4.64l7.05,1.34l1.63,0.35l-0.2-0.07l0.26,0.05l54.65-2.69l-63.16,0 l-0.55-0.12c-2.11-0.57-4.34-1.12-6.69-1.65l79.88-2.84h-95.02c-3.19-0.5-6.51-0.95-9.94-1.37L279.58,0H109.67H109.23"></path>
                                </svg>