<svg class="logos_image" width="280" height="86" viewBox="0 0 280 86" xmlns="http://www.w3.org/2000/svg">
                                    <path d="M277.22,39.7c-1.53,0-2.63,1.25-2.63,2.78c0,1.53,1.1,2.78,2.63,2.78c1.53,0,2.78-1.25,2.78-2.78 C280,40.95,278.75,39.7,277.22,39.7z M277.22,44.86c-1.32,0-2.23-1.07-2.23-2.38c0-1.32,0.91-2.38,2.23-2.38 c1.32,0,2.38,1.07,2.38,2.38C279.6,43.79,278.54,44.86,277.22,44.86z M278.46,41.76c0-0.63-0.37-0.91-1.13-0.91h-1.21v3.21h0.48 v-1.4h0.51l0.84,1.4h0.6l-0.91-1.41C278.11,42.57,278.46,42.33,278.46,41.76z M276.6,42.25v-1.01h0.65c0.5,0,0.72,0.15,0.72,0.51 c0,0.35-0.23,0.5-0.72,0.5H276.6z M18.28,77.32h4.93v1.11h-3.64v2.34h3.34v1.11h-3.34v3.75h-1.28V77.32z M31.95,79.79 c0-0.96-0.47-1.76-1.26-2.13c-0.56-0.26-1.08-0.34-2.47-0.34h-1.78v8.32h1.28V82.3h1.29l1.88,3.34h1.52l-2.04-3.55 C31.42,81.66,31.95,80.88,31.95,79.79z M29.81,81.04c-0.34,0.12-0.61,0.15-1.51,0.15h-0.57v-2.76h0.51c1.11,0,1.39,0.04,1.73,0.21 c0.41,0.2,0.65,0.61,0.65,1.13C30.62,80.39,30.32,80.85,29.81,81.04z M36.79,84.53h3.74v1.11h-5.03v-8.32h4.93v1.11h-3.64v2.34h3.34 v1.11h-3.34V84.53z M43.85,77.32h1.3v8.32h-1.3V77.32z M48.7,77.32h5.24v0.9l-4.04,6.31h3.93v1.11h-5.45v-1.01l4-6.22H48.7V77.32z M58.44,84.53h3.74v1.11h-5.03v-8.32h4.93v1.11h-3.64v2.34h3.34v1.11h-3.34V84.53z M65.49,77.32h1.3v8.32h-1.3V77.32z M69.9,77.32 h5.65v1.11h-2.2v7.21h-1.28v-7.21H69.9V77.32z M82.64,77.56c-0.54-0.19-1.09-0.24-2.33-0.24h-1.67v8.32h1.29v-3.23h0.55 c1.18,0,1.71-0.05,2.21-0.22c0.91-0.31,1.47-1.18,1.47-2.28C84.15,78.77,83.58,77.87,82.64,77.56z M81.95,81.18 c-0.35,0.1-0.61,0.12-1.48,0.12h-0.55v-2.87h0.54c0.93,0,1.31,0.05,1.66,0.2c0.44,0.2,0.7,0.66,0.7,1.26 C82.82,80.54,82.49,81.03,81.95,81.18z M88.75,77.3l-2.83,8.34h1.32l0.62-1.95h3.03l0.61,1.95h1.33L90,77.3H88.75z M88.2,82.59 l1.17-3.74l1.19,3.74H88.2z M101.45,79.79c0-0.96-0.47-1.76-1.26-2.13c-0.56-0.26-1.09-0.34-2.47-0.34h-1.78v8.32h1.28V82.3h1.29 l1.88,3.34h1.52l-2.04-3.55C100.91,81.66,101.45,80.88,101.45,79.79z M99.3,81.04c-0.34,0.12-0.61,0.15-1.51,0.15h-0.57v-2.76h0.51 c1.11,0,1.39,0.04,1.73,0.21c0.41,0.2,0.65,0.61,0.65,1.13C100.11,80.39,99.81,80.85,99.3,81.04z M105,77.32h1.28v8.32H105V77.32z M107.77,81.21l3.5,4.43h-1.68l-3.28-4.39l3.19-3.93h1.51L107.77,81.21z M124.59,82c0-0.05,0-0.21-0.01-0.36h-0.99v0.25 c0,0.69-0.06,1.01-0.26,1.4l-1.55-2.1c0.95-0.79,1.28-1.32,1.28-2.08c0-1-0.72-1.66-1.81-1.66c-1.13,0-1.93,0.7-1.93,1.68 c0,0.57,0.14,0.85,0.9,1.83c-1.21,0.98-1.58,1.56-1.58,2.46c0,1.38,1.07,2.33,2.63,2.33c0.87,0,1.43-0.22,2.01-0.77l0.45,0.66h1.31 l-1.06-1.43C124.42,83.6,124.59,82.96,124.59,82z M121.26,78.38c0.45,0,0.76,0.29,0.76,0.69c0,0.45-0.26,0.85-0.89,1.35 c-0.57-0.76-0.67-0.96-0.67-1.32C120.46,78.69,120.81,78.38,121.26,78.38z M121.31,84.76c-0.89,0-1.51-0.52-1.51-1.26 c0-0.56,0.29-0.99,1.11-1.62l1.73,2.31C122.3,84.56,121.85,84.76,121.31,84.76z M134.7,84.53h3.74v1.11h-5.03v-8.32h4.93v1.11h-3.64 v2.34h3.34v1.11h-3.34V84.53z M147.28,79.79c0-0.96-0.47-1.76-1.26-2.13c-0.56-0.26-1.09-0.34-2.47-0.34h-1.78v8.32h1.28V82.3h1.29 l1.88,3.34h1.52l-2.05-3.55C146.75,81.66,147.28,80.88,147.28,79.79z M145.14,81.04c-0.34,0.12-0.61,0.15-1.51,0.15h-0.57v-2.76 h0.51c1.11,0,1.38,0.04,1.73,0.21c0.41,0.2,0.65,0.61,0.65,1.13C145.95,80.39,145.65,80.85,145.14,81.04z M152.16,84.53h3.58v1.11 h-4.9v-8.32h1.32V84.53z M160.18,84.53h3.74v1.11h-5.03v-8.32h4.93v1.11h-3.64v2.34h3.34v1.11h-3.34V84.53z M171.04,81.2 c0.95-0.3,1.37-0.85,1.37-1.8c0-0.9-0.49-1.6-1.28-1.88c-0.46-0.15-0.94-0.2-1.98-0.2h-1.9v8.32h1.72c1.45,0,1.86-0.04,2.42-0.21 c0.89-0.29,1.47-1.13,1.47-2.14C172.86,82.16,172.27,81.49,171.04,81.2z M168.51,78.38h0.66c0.76,0,1.07,0.04,1.36,0.15 c0.37,0.16,0.61,0.55,0.61,1.02c0,0.47-0.21,0.86-0.56,1.03c-0.3,0.15-0.66,0.2-1.34,0.2h-0.73V78.38z M170.89,84.39 c-0.32,0.15-0.67,0.19-1.61,0.19h-0.77v-2.76h0.8c0.81,0,1.11,0.02,1.45,0.15c0.49,0.19,0.77,0.64,0.77,1.23 C171.53,83.77,171.29,84.22,170.89,84.39z M181.27,77.32h1.22v8.32h-1.33l-3.7-6.35v6.35h-1.22v-8.32h1.38l3.65,6.36V77.32z M186.41,77.32h1.3v8.32h-1.3V77.32z M196.5,81.86c0.32,0.39,0.5,0.89,0.5,1.46c0,1.5-1.12,2.47-2.86,2.47 c-1.88,0-2.93-0.99-3.02-2.84h1.25c0.1,1.13,0.71,1.72,1.8,1.72c0.89,0,1.51-0.47,1.51-1.13c0-0.37-0.18-0.66-0.54-0.91 c-0.26-0.17-0.41-0.25-1.37-0.66c-0.91-0.39-1.43-0.69-1.73-0.97c-0.42-0.41-0.64-0.92-0.64-1.51c0-1.35,1.11-2.31,2.68-2.31 c1,0,1.82,0.39,2.28,1.09c0.26,0.37,0.36,0.75,0.4,1.37h-1.23c-0.08-0.85-0.62-1.33-1.48-1.33c-0.77,0-1.36,0.46-1.36,1.07 c0,0.3,0.16,0.56,0.46,0.74c0.25,0.16,0.4,0.22,1.42,0.66C195.8,81.28,196.18,81.5,196.5,81.86z M199.43,82.05h3.33v0.91h-3.33 V82.05z M211.18,79.79c0-0.96-0.47-1.76-1.26-2.13c-0.56-0.26-1.09-0.34-2.47-0.34h-1.78v8.32h1.28V82.3h1.29l1.88,3.34h1.52 l-2.05-3.55C210.64,81.66,211.18,80.88,211.18,79.79z M209.03,81.04c-0.34,0.12-0.61,0.15-1.51,0.15h-0.57v-2.76h0.51 c1.11,0,1.38,0.04,1.73,0.21c0.41,0.2,0.65,0.61,0.65,1.13C209.85,80.39,209.55,80.85,209.03,81.04z M216.02,84.53h3.74v1.11h-5.03 v-8.32h4.93v1.11h-3.64v2.34h3.34v1.11h-3.34V84.53z M227.94,81.86c0.32,0.39,0.5,0.89,0.5,1.46c0,1.5-1.12,2.47-2.86,2.47 c-1.88,0-2.93-0.99-3.02-2.84h1.25c0.1,1.13,0.71,1.72,1.8,1.72c0.89,0,1.51-0.47,1.51-1.13c0-0.37-0.17-0.66-0.54-0.91 c-0.26-0.17-0.41-0.25-1.37-0.66c-0.91-0.39-1.43-0.69-1.73-0.97c-0.42-0.41-0.64-0.92-0.64-1.51c0-1.35,1.11-2.31,2.68-2.31 c1,0,1.82,0.39,2.28,1.09c0.26,0.37,0.36,0.75,0.4,1.37h-1.23c-0.08-0.85-0.62-1.33-1.48-1.33c-0.77,0-1.36,0.46-1.36,1.07 c0,0.3,0.16,0.56,0.46,0.74c0.25,0.16,0.4,0.22,1.42,0.66C227.24,81.28,227.61,81.5,227.94,81.86z M235,77.17 c-2.12,0-3.59,1.73-3.59,4.25c0,2.64,1.42,4.36,3.59,4.36c2.15,0,3.58-1.73,3.58-4.32C238.58,78.91,237.14,77.17,235,77.17z M235,84.68c-1.4,0-2.24-1.23-2.24-3.24c0-1.92,0.87-3.16,2.24-3.16c1.37,0,2.23,1.23,2.23,3.19 C237.23,83.45,236.37,84.68,235,84.68z M247.52,79.79c0-0.96-0.47-1.76-1.26-2.13c-0.56-0.26-1.09-0.34-2.47-0.34H242v8.32h1.28 V82.3h1.29l1.88,3.34h1.52l-2.04-3.55C246.98,81.66,247.52,80.88,247.52,79.79z M245.37,81.04c-0.34,0.12-0.61,0.15-1.51,0.15h-0.57 v-2.76h0.51c1.11,0,1.38,0.04,1.73,0.21c0.41,0.2,0.65,0.61,0.65,1.13C246.18,80.39,245.88,80.85,245.37,81.04z M250.2,77.32h5.65 v1.11h-2.2v7.21h-1.28v-7.21h-2.17V77.32z M88.24,39.95c0.09,0,0.17-0.01,0.26-0.01c8.96,0,11.63,6.37,11.63,14.64 c0,8.26-2.67,14.66-11.63,14.66c-0.09,0-0.17,0-0.26,0c8.75-0.12,11.37-6.47,11.37-14.65C99.61,46.4,96.99,40.07,88.24,39.95z M61.99,39.94h0.51c6.11,0,9.32,2.65,9.4,7.8c0.05,3.15-1.4,5.25-3.95,6.36c0.39,0.22,0.68,0.36,1.2,0.83 c1.27,1.15,1.72,3.09,2.01,4.15c0.49,1.81,0.57,4.56,3.6,4.47v4.87h-0.51v-4.87c-3.03,0.1-3.12-2.66-3.6-4.47 c-0.29-1.07-0.73-3.01-2.01-4.15c-0.51-0.47-0.81-0.61-1.2-0.83c2.55-1.11,4-3.21,3.95-6.36C71.3,42.58,68.09,39.94,61.99,39.94z M61.33,63.31v5.09h-0.51v-5.09H61.33z M130.8,59.82l-1.13,3.49h-1.09l1.13-3.49h7.97l1.13,3.49h-1.72v5.09h9.98v-5.09h-0.47 l-8.01-23.36h-0.52l8.01,23.36H145l-8.01-23.37h-6.54l-8.05,23.37h-1.7v5.09h9.98v-5.09h-0.49l1.13-3.49H130.8z M132.86,54.91 l1.64-5.62l1.64,5.62H132.86z M133.7,46.53l0.55,1.87l-1.89,6.51h-1.09L133.7,46.53z M148.16,63.31h0.51v5.09h-0.51V63.31z M131.77,63.31h0.51v5.09h-0.51V63.31z M20.91,47.04l-0.52-7.1h0.51l0.52,7.1H20.91z M21.2,61.03h0.51l-0.76,7.37h-0.51L21.2,61.03z M15.52,56.13v-4.9h0.51v4.9H15.52z M261.46,44.84h-0.51v-4.9h0.51V44.84z M261.63,63.48h0.51v4.92h-0.51V63.48z M248.22,39.94h0.51 v4.9h-0.51V39.94z M248.22,63.48h0.51v4.92h-0.51V63.48z M210.59,68.39h-0.51v-4.92h0.51V68.39z M193.68,63.47h0.51v4.92h-0.51 V63.47z M222.34,39.94h0.51v4.9h-0.51V39.94z M244.99,68.41c-4.26,0-6.74-3.18-7.83-7.16c-0.25-0.9-0.48-2.04-0.98-2.96 c-0.79-1.28-2.12-1.42-3.48-1.47c-0.09,0-0.22,0-0.35,0v-0.01c0.24,0,1.09,0,1.44,0c1.36,0.05,2.68,0.19,3.48,1.47 c0.5,0.92,0.73,2.06,0.97,2.96c1.1,3.99,3.57,7.16,7.83,7.16h1.41v-4.87c-3.03,0.1-3.12-2.66-3.6-4.47 c-0.29-1.07-0.73-3.01-2.01-4.15c-0.51-0.47-0.81-0.61-1.2-0.83c2.55-1.11,4-3.21,3.95-6.36c-0.08-5.15-3.29-7.8-9.4-7.8h-11.29v4.9 h2.39v18.64h-1.09V44.84h-0.51v18.64h-0.79v4.92h10.12v-4.92h-1.71v-6.65c1.3,0.06,2.56,0.23,3.32,1.46 c0.5,0.92,0.73,2.06,0.98,2.96c1.1,3.99,3.57,7.16,7.83,7.16H244.99z M235.22,44.63c3.13,0,3.33,2.55,3.33,3.63 c0,3.9-2.94,3.89-6.21,3.88v0c2.8-0.04,5.12-0.42,5.12-3.88c0-1.08-0.2-3.63-3.33-3.63h-0.52c3.13,0,3.33,2.55,3.33,3.63 c0,3.24-2.04,3.78-4.61,3.87v-7.5H235.22z M222.85,68.4h-0.51v-4.92h0.51V68.4z M86.9,69.24c8.96,0,11.63-6.39,11.63-14.66 c0-8.27-2.67-14.64-11.63-14.64c-9,0-11.63,6.37-11.63,14.64C75.27,62.84,77.89,69.24,86.9,69.24z M92.06,54.58 c0,4.99-0.96,9.32-4.35,9.9c-3.44-0.57-4.37-4.9-4.37-9.9c0-5.01,0.94-9.34,4.39-9.9C91.11,45.28,92.06,49.59,92.06,54.58z M86.9,44.61c0.2,0,0.39,0.02,0.57,0.04c-3.66,0.38-4.64,4.8-4.64,9.94c0,5.11,0.97,9.52,4.6,9.93c-0.17,0.02-0.34,0.04-0.52,0.04 c-4.1,0-5.16-4.6-5.16-9.98C81.73,49.21,82.8,44.61,86.9,44.61z M71.03,68.41h2.12v-4.87c-3.03,0.1-3.12-2.66-3.6-4.47 c-0.29-1.07-0.73-3.01-2.01-4.15c-0.51-0.47-0.81-0.61-1.2-0.83c2.55-1.11,4-3.21,3.95-6.36c-0.08-5.15-3.29-7.8-9.4-7.8H49.6v4.9 h2.39v18.47H49.6v5.09h10.12v-5.09h-0.11v-6.49c1.3,0.06,2.56,0.23,3.32,1.46c0.5,0.92,0.73,2.06,0.98,2.96 C65,65.23,66.77,68.41,71.03,68.41z M58.01,63.31v-6.5c0.22,0,0.92,0,1.31,0c-0.09,0-0.17,0-0.22,0v6.5H58.01z M59.6,52.12v-7.49 h-0.51v7.5c-0.36,0-0.72,0.01-1.09,0v-7.51h2.88c3.13,0,3.33,2.55,3.33,3.63C64.21,51.5,62.17,52.03,59.6,52.12z M34.39,44.84h-0.51 v-4.9h0.51V44.84z M48.8,44.84h-0.51v-4.9h0.51V44.84z M46.02,44.84h0.51v14.58c0,8.18-6.49,9.4-10.06,9.4c-0.08,0-0.17,0-0.25,0 c3.62-0.06,9.8-1.41,9.8-9.39V44.84z M37.28,39.93h9.92v4.9h-2.27v14.58c0,8.18-6.49,9.4-10.06,9.4c-3.31,0-10.12-1.19-10.12-9.39 V44.84h-2.37v-4.9h10.4v4.9h-2.03V59.4c0.02,0.67,0.05,1.33,0.22,1.99c0.2,0.77,0.57,1.5,1.21,2c0.74,0.57,1.75,0.78,2.67,0.76 c0.12,0,0.24-0.02,0.36-0.03c-0.7-0.08-1.39-0.3-1.94-0.73c-0.64-0.5-1.01-1.23-1.21-2c-0.17-0.66-0.2-1.31-0.22-1.99V44.84h0.51 V59.4c0.02,0.67,0.05,1.33,0.22,1.99c0.2,0.77,0.57,1.5,1.21,2c0.5,0.39,1.13,0.6,1.77,0.7c0.82-0.1,1.58-0.36,2.22-0.95 c0.96-0.88,1.12-2.53,1.15-3.74V44.85v-0.01h-1.65V39.93z M2.08,63.48V44.84H0v-4.9h19.31l0.52,7.1H14.9l-0.52-2.2h-6.3v6.38h1.09 v-6.38h0.51v6.38h4.74v4.9H8.09v7.35h1.09v-7.35h0.51v7.35h4.67l0.52-2.45h5.23l-0.76,7.37H0v-4.92H2.08z M271.51,63.48h1.47v4.92 h-9.75v-4.92h1.01l-6.54-8.45v1.41l5.45,7.04h-0.51l-4.93-6.38v6.37h2.24v4.92h-10.12v-4.92h0.29V44.84h0.51v18.64h1.09V44.84h-1.89 v-4.9h9.9v4.9h-2.02v4.69l3.87-4.69h0.51l-4.39,5.31v1.31l5.48-6.63h-0.64v-4.9h9.62v4.9h-1.13l-7.41,8.67L271.51,63.48z M211.57,39.93h-6.54l-8.05,23.54h-1.09l8.05-23.53h-0.51l-8.05,23.53h-0.1v4.92h9.98v-4.92h-2.09l1.13-3.66h7.97l1.13,3.66h-1.09 l-1.13-3.66h-0.51l1.13,3.66h-0.12v4.92h9.98v-4.92h-2.07L211.57,39.93z M207.48,49.28l1.64,5.62h-3.27L207.48,49.28z M209.63,54.9 l-1.89-6.5l0.55-1.87l2.44,8.38H209.63z M222.69,16.38c-3.73-0.55-8.2-1.82-13.17-5.75c3.33,0.61,7.08,0.77,12.14-1.12 c-0.39-2.86-0.37-5.9,0.37-9.31c1.26,2.57,3.19,4.85,5.4,6.84c1.76-2.31,3.9-4.26,6.48-5.92l0.79-0.51l-0.55,0.76 c-1.12,1.56-1.99,3.22-2.63,5.03c2.35-0.29,5.92-0.44,8.3-0.15c0.15,0.01,0.22,0.02,0.22,0.02l-1.21,0.26 c-0.41,0.01-0.89,0.03-1.46,0.06c-1.82,0.1-4.33,0.43-6.35,1.07l-0.31,0.09l0.09-0.31c0.08-0.26,0.16-0.52,0.25-0.78c0,0,0,0,0,0 c0.09-0.26,0.18-0.51,0.27-0.76c0.54-1.41,1.22-2.72,2.04-3.97c-3.06,2.11-5.46,4.66-7.31,7.81l-0.03,0.06l-0.06,0.02 c-0.49,0.17-1.09,0.45-1.78,0.79c-1.77,0.85-4.17,1.98-7.41,2.52c1.75,1.16,3.53,1.93,5.6,2.74c0.2,0.08,0.4,0.16,0.6,0.25 l-0.26,0.27L222.69,16.38z M178.95,27.78l-0.66,0.2l0.49-0.5c2.73-2.79,4.83-5.82,7.06-9.02l0.68-0.98l0.06,0.04 c0.38,0.2,0.85,0.32,1.27,0.35c3.19,0.24,5.96-0.42,8.66-1.46c2.85-1.09,5.63-2.6,8.75-3.92c-2.03,1.68-3.92,3.5-5.77,5.38 c2.92,0.95,6.21,2.63,8.48,4.97c-5.48-1.25-8.62-1.3-12.76-1.21c-0.66,0.87-1.4,1.65-2.19,2.37c2.34,0.76,5.09,1.77,6.55,2.94 c-0.35-1.47-1.39-2.84-2.4-4.18c0,0-0.11-0.14-0.24-0.32c0.15,0,0.3,0,0.44,0l0.08,0.11c1.15,1.52,2.34,3.1,2.57,4.84l0.07,0.52 l-0.37-0.38c-1.28-1.3-4.56-2.47-6.92-3.24l-0.09-0.03c-3.2,2.81-7.2,4.63-10.9,6.77c2.01-3.91,4.73-8.8,4.76-13.01l-0.44,0.63 c-2.11,3.03-4.12,5.9-6.65,8.58c1.49-0.45,2.8-0.86,3.96-1.24c-0.07,0.15-0.14,0.3-0.21,0.44 C181.97,26.86,180.57,27.29,178.95,27.78z M232.47,8.11c0.61-0.15,1.23-0.26,1.81-0.36c-4.89,1.73-7.39,4.3-10.59,7.61l-0.1,0.1 l-0.36-0.15l0.2-0.2C226.18,12.28,228.53,9.87,232.47,8.11z M166.19,42.66c0.32,1.1,0.56,1.94,0.56,1.94l-0.34-0.13 c-2.17-0.85-4.71-1.81-7.33-2.46c-0.07,0.03-5.61,2.37-9.38,3.97l1.62-1.07c3.49-1.48,7.73-3.27,7.73-3.27l0.06,0.01 c2.53,0.62,4.97,1.53,7.1,2.36c-0.05-0.17-0.23-0.78-0.45-1.56C165.9,42.52,166.05,42.59,166.19,42.66z M173.32,32.58l2.77,0.37 c0,0-7.47,3.13-10.28,4.3c0.73,1.69,1.24,3.38,1.58,5.1c-2.54-1.27-5.35-2.72-9.4-2.81l-11.57,7.64l6.09-9.68l-6.84-4.57l10.86-0.86 l5.12-7.85l2.47,6.91c2.38,0.17,7-0.11,10.74-0.52c-2.95,2-7.88,4.62-9.77,5.12c0.2,0.4,0.39,0.79,0.57,1.19 c2.61-1.09,8.24-3.45,9.07-3.8c-0.38-0.05-1.93-0.26-1.93-0.26L173.32,32.58z M111.44,56.87h-0.51v6.44h-1.09v-6.44h1.68 c5.29,0,10.16-2.28,10.16-8.29c0-7.76-5.19-8.64-11.8-8.64h-8.42v4.91h2.38v18.46h-2.38v5.09h11.1v-5.09h-1.11V56.87z M109.84,44.61 h1.67c2.82,0,4.16,1.17,4.16,3.74c0,2.29-1.37,3.84-4.16,3.84h-0.07v-7.58h-0.51v7.58h-1.09V44.61z M113.13,56.87h-0.51 c5.29,0,10.16-2.28,10.16-8.29c0-7.76-5.18-8.64-11.8-8.64h0.51c6.62,0,11.8,0.88,11.8,8.64C123.28,54.59,118.41,56.87,113.13,56.87 z M113.64,63.31h0.51v5.09h-0.51V63.31z M175.14,39.94l0.03,4.91h-0.51l-0.08-4.91H175.14z M174.65,63.31h0.51v5.09h-0.51V63.31z M187.35,63.48h-2.72v-6.61h1.68c5.29,0,10.15-2.28,10.15-8.29c0-7.76-5.18-8.64-11.8-8.64h-8.42v4.91h2.39v18.46h-1.09V44.85h-0.51 v18.46h-0.78v5.09h11.1V63.48z M184.64,44.61h1.67c2.82,0,4.16,1.17,4.16,3.74c0,2.29-1.37,3.84-4.16,3.84h-1.04 c2.76-0.02,4.11-1.57,4.11-3.84c0-2.58-1.33-3.74-4.15-3.74h-0.51c2.82,0,4.15,1.17,4.15,3.74c0,2.27-1.35,3.82-4.11,3.84h-0.11 V44.61z"></path>
                                </svg>