<svg class="logos_image" width="280" height="30" viewBox="0 0 280 30" xmlns="http://www.w3.org/2000/svg">
                                    <path d="M36.85,1.42v27.16c0,0.41-0.31,0.71-0.72,0.71h-5.34c-0.41,0-0.72-0.3-0.72-0.71V18.34H18.68v10.24 c0,0.41-0.31,0.71-0.72,0.71h-5.34c-0.41,0-0.72-0.3-0.72-0.71V18.34H3.39C1.54,18.34,0,16.82,0,15s1.54-3.34,3.39-3.34h8.52V3.34 c0-1.82,1.54-3.34,3.39-3.34c1.85,0,3.39,1.52,3.39,3.34v8.31h11.39V1.42c0-0.41,0.31-0.71,0.72-0.71h5.34 C36.54,0.71,36.85,1.01,36.85,1.42z M162.38,22.91h-12.93V1.32c0-0.41-0.31-0.71-0.72-0.71h-5.34c-0.41,0-0.72,0.3-0.72,0.71v27.36 c0,0.41,0.31,0.71,0.72,0.71h18.99c0.41,0,0.72-0.3,0.72-0.71v-5.07C163.09,23.21,162.79,22.91,162.38,22.91z M109.72,15 c0,8.31-6.06,14.39-14.99,14.39H83.65c-0.41,0-0.72-0.3-0.72-0.71V1.32c0-0.41,0.31-0.71,0.72-0.71h11.29 C103.77,0.61,109.82,6.49,109.72,15z M102.74,15.1c0-5.17-3.59-8.31-8.31-8.31h-4.62v16.52h4.62 C99.35,23.31,102.74,19.97,102.74,15.1z M76.77,0.71h-5.34c-0.41,0-0.72,0.3-0.72,0.71v27.26c0,0.41,0.31,0.71,0.72,0.71h5.34 c0.41,0,0.72-0.3,0.72-0.71V1.42C77.49,1.01,77.18,0.71,76.77,0.71z M42.8,7.09h21.76c0.41,0,0.72-0.3,0.72-0.71V1.32 c0.1-0.3-0.21-0.71-0.62-0.71H42.8c-0.41,0-0.72,0.3-0.72,0.71v5.07C42.08,6.79,42.39,7.09,42.8,7.09z M42.8,18.24h21.76 c0.41,0,0.72-0.3,0.72-0.71v-5.07c0.1-0.41-0.21-0.71-0.62-0.71H42.8c-0.41,0-0.72,0.3-0.72,0.71v5.07 C42.08,17.94,42.39,18.24,42.8,18.24z M64.66,22.91H42.8c-0.41,0-0.72,0.3-0.72,0.71v5.07c0,0.41,0.31,0.71,0.72,0.71h21.76 c0.41,0,0.72-0.3,0.72-0.71v-5.07h0.1C65.38,23.21,65.07,22.91,64.66,22.91z M136.61,0.61h-21.76c-0.41,0-0.72,0.3-0.72,0.71v5.07 c0,0.41,0.31,0.71,0.72,0.71h21.76c0.41,0,0.72-0.3,0.72-0.71V1.32C137.33,1.01,137.02,0.61,136.61,0.61z M136.61,11.76h-21.76 c-0.41,0-0.72,0.3-0.72,0.71v5.07c0,0.41,0.31,0.71,0.72,0.71h21.76c0.41,0,0.72-0.3,0.72-0.71v-5.07 C137.33,12.06,137.02,11.76,136.61,11.76z M136.61,22.91h-21.76c-0.41,0-0.72,0.3-0.72,0.71v5.07c0,0.41,0.31,0.71,0.72,0.71h21.76 c0.41,0,0.72-0.3,0.72-0.71v-5.07C137.33,23.21,137.02,22.91,136.61,22.91z M192.45,21.28c0,5.07-4.52,8.11-9.75,8.11h-14.37 c-0.41,0-0.72-0.3-0.72-0.71V1.32c0-0.41,0.31-0.71,0.72-0.71h13.14c6.77,0,9.65,3.95,9.65,7.6c0,2.64-1.13,4.66-3.39,6.08 C191.22,15.81,192.55,18.14,192.45,21.28z M174.08,12.06h7.29c1.85,0,3.08-1.22,3.08-2.74s-1.33-2.74-3.08-2.74h-7.29V12.06z M185.57,20.57c0-1.32-1.13-2.84-3.28-2.84h-8.21v5.68h8.21C184.44,23.41,185.57,21.89,185.57,20.57z M279.28,12.36h-12.11 c-0.41,0-0.72,0.3-0.72,0.71v4.46c0,0.41,0.31,0.71,0.72,0.71h6.16v3.95c-1.23,0.91-3.49,1.62-5.65,1.62 c-4.82,0-8.62-3.65-8.62-8.72c0-4.97,4-8.61,8.21-8.61c2.67,0,4.72,0.51,6.98,2.33c0.1,0.1,0.31,0.2,0.51,0.2s0.41-0.1,0.51-0.3 l3.18-4.05c0.21-0.2,0.21-0.41,0.21-0.51c0-0.2-0.21-0.41-0.31-0.51c-3.18-2.53-6.26-3.34-10.88-3.34c-8.31,0-15.29,6.28-15.29,14.9 S258.55,30,267.48,30c6.47,0,10.57-3.04,11.7-3.95c0.51-0.41,0.82-1.01,0.82-1.72V13.07C280,12.67,279.69,12.36,279.28,12.36z M219.13,0.71h-21.76c-0.41,0-0.72,0.3-0.72,0.71v5.07c0,0.41,0.31,0.71,0.72,0.71h21.76c0.41,0,0.72-0.3,0.72-0.71V1.42 C219.85,1.01,219.55,0.71,219.13,0.71z M219.13,11.76h-21.76c-0.41,0-0.72,0.3-0.72,0.71v5.07c0,0.41,0.31,0.71,0.72,0.71h21.76 c0.41,0,0.72-0.3,0.72-0.71v-5.07C219.85,12.06,219.55,11.76,219.13,11.76z M219.13,22.91h-21.76c-0.41,0-0.72,0.3-0.72,0.71v5.07 c0,0.41,0.31,0.71,0.72,0.71h21.76c0.41,0,0.72-0.3,0.72-0.71v-5.07C219.85,23.21,219.55,22.91,219.13,22.91z M250.75,28.38 c0.1,0.2,0.1,0.51,0,0.71c-0.1,0.2-0.41,0.3-0.62,0.3h-5.85c-0.51,0-1.13-0.3-1.44-0.81l-7.18-10.34h-3.7v10.44 c0,0.41-0.31,0.71-0.72,0.71h-5.34c-0.41,0-0.72-0.3-0.72-0.71V1.32c0-0.41,0.31-0.71,0.72-0.71h13.96c6.88,0,9.13,5.47,9.13,9.12 c0,3.75-1.95,6.79-5.75,8.11L250.75,28.38z M242.54,9.63c0-1.52-1.23-3.04-2.98-3.04h-7.6v5.98h7.6 C241.41,12.57,242.54,11.15,242.54,9.63z"></path>
                                </svg>