<svg class="logos_image" width="120" height="62" viewBox="0 0 120 62" xmlns="http://www.w3.org/2000/svg">
                                    <path d="M17.06,28.15c-1.31,0-2.37,0.47-3.2,1.43c-0.83,0.95-1.24,2.39-1.24,4.32c0,2.12,0.41,3.65,1.22,4.6 c0.81,0.95,1.84,1.42,3.08,1.42c1.15,0,2.12-0.46,2.89-1.4c0.78-0.93,1.17-2.51,1.17-4.72c0-1.95-0.38-3.38-1.15-4.29 C19.07,28.61,18.14,28.15,17.06,28.15z M16.78,36.6c-0.45,0-0.81-0.95-0.81-2.57c0-1.67,0.36-2.57,0.81-2.57s0.81,0.31,0.81,2.57 C17.59,36.39,17.22,36.6,16.78,36.6z M63.97,28.15c-1.09,0-2.01,0.46-2.78,1.37c-0.76,0.91-1.15,2.34-1.15,4.29 c0,2.21,0.39,3.79,1.17,4.72c0.78,0.94,1.74,1.4,2.89,1.4c1.24,0,2.27-0.47,3.08-1.42c0.81-0.95,1.22-2.48,1.22-4.6 c0-1.93-0.42-3.37-1.24-4.32C66.34,28.62,65.27,28.15,63.97,28.15z M64.25,36.6c-0.45,0-0.82-0.2-0.82-2.57 c0-2.26,0.37-2.57,0.82-2.57c0.45,0,0.81,0.9,0.81,2.57C65.06,35.65,64.69,36.6,64.25,36.6z M116.01,10v21.05l0,0h-5.27V20.96 l-3.04,5.2h-3.37l0,0l-3.04-5.2v10.08H96v0l0.01-21.06h5.18v0l4.82,9.28l4.82-9.29H116c-4.14-5.94-11.09-9.84-18.97-9.84 S82.22,4.05,78.09,9.98h14.55v4.62h-9.31v3.69h7.95v4.61h-7.9v8.13h-5.32v15.4v1.16c-0.01,1.67-0.09,3.32-0.62,4.7 c-0.54,1.4-1.42,2.7-2.6,3.62c-1.18,0.92-2.68,1.59-4.5,2c-1.82,0.41-3.9,0.62-6.25,0.62c-5.36,0-9.04-0.79-11.05-2.37 c-2-1.58-3-3.69-3-6.34c0-0.33,0.02-0.77,0.05-1.33l9.93,1.11c0.25,0.9,0.64,1.53,1.16,1.88c0.75,0.51,1.7,0.76,2.84,0.76 c1.47,0,2.57-0.39,3.3-1.16c0.73-0.77,1.09-2.12,1.09-4.05v-3.97c-1,1.17-2.01,2.02-3.01,2.54c-1.58,0.82-3.28,1.23-5.1,1.23 c-3.57,0-6.45-1.53-8.65-4.59c-1.56-2.18-2.34-5.04-2.34-8.62c0-4.08,1-7.18,3.02-9.32c2.01-2.14,4.64-3.21,7.89-3.21 c2.08,0,3.79,0.34,5.14,1.04c1.35,0.69,2.61,1.83,3.78,3.43v-3.91h8.91V10.03c-1.71,2.47-2.95,5.27-3.55,8.3h-9.79 c-0.85-0.23-2.41-0.56-4.49-0.56c-2.06,0-3.98,0.35-5.7,1.05c-1.76,0.72-3.34,1.81-4.67,3.22c-0.42,0.44-0.79,0.93-1.14,1.43v-5.15 h-1.66c1.08-1.41,1.73-3.16,1.73-5.07c0-4.67-3.87-8.47-8.63-8.47c-4.76,0-8.63,3.8-8.63,8.47c0,1.9,0.65,3.65,1.73,5.07h-1.66v5.15 c-0.34-0.48-0.7-0.95-1.1-1.38c-1.32-1.42-2.85-2.51-4.55-3.24c-1.69-0.72-3.55-1.08-5.54-1.08c-1.38,0-2.7,0.17-3.94,0.52V8.96H0 v40.64h16.49c0.81,0.23,2.24,0.56,3.97,0.56c2.61,0,5.04-0.69,7.19-2.04c1.57-0.98,2.88-2.31,3.94-3.96v5.45h15.07 c0,0.07,0,0.16,0,0.22c0,1.81,0.36,3.48,1.06,4.97c0.72,1.52,1.8,2.85,3.2,3.96c1.43,1.13,3.28,1.92,5.66,2.43 c2.1,0.45,4.55,0.67,7.51,0.67c2.59,0,4.94-0.24,7-0.7c2.3-0.52,4.27-1.4,5.84-2.63l0.01,0c1.61-1.25,2.87-3,3.66-5.04 c0.75-1.95,0.83-4.04,0.84-5.85v-0.02v-1.17l0,0v-7.22c4.1,3.73,9.57,6.03,15.59,6.03c12.68,0,22.97-10.1,22.97-22.55 C120,17.98,118.53,13.62,116.01,10z M29.62,40.73c-0.91,2.05-2.18,3.58-3.79,4.59c-1.62,1.01-3.41,1.52-5.37,1.52 c-1.68,0-3.23-0.35-4.63-1.07c-1.06-0.56-2.21-1.6-3.45-3.13v3.64h-9V12.29h9.7v11.78c0.96-0.99,2.05-1.73,3.27-2.23 c1.22-0.49,2.57-0.74,4.05-0.74c3.05,0,5.58,1.08,7.58,3.24c2,2.16,3,5.25,3,9.29C30.99,36.31,30.54,38.68,29.62,40.73z M44.95,46.28h-9.61V21.66h9.61V46.28z M40.15,18.42c-2.89,0-5.25-2.31-5.25-5.15c0-2.84,2.36-5.15,5.25-5.15 c2.89,0,5.24,2.31,5.24,5.15S43.04,18.42,40.15,18.42z"></path>
                                </svg>